# xmcd
#
# Track frame offsets:
# 150
# 21270
# 34866
# 52577
# 63389
# 74538
# 90001
# 110066
# 126115
# 135072
# 151104
# 161156
# 184362
# 196700
# 209942
# 229008
# 249973
# 261028
# 278637
# 295605
# 315537
# 330083
#
# Disc length: 4639 seconds
#
#
# Revision: 0
# Processed by: cddbd v1.5.2PL0 Copyright (c) Steve Scherf et al.
# Submitted via: FreeRIP 2.945 
#
DISCID=26121d16
DTITLE=Various Artist - Spin List SE One More Hit
DYEAR=1900
DGENRE=Hip-Hop
TTITLE0=Crooklyn Dodgers(Mos Def Jean Grae Bleek)
TTITLE1=Onion Head(Buckshot 9th)
TTITLE2=Back At It Agian(Cormega)
TTITLE3=What They Want
TTITLE4=My Pen and My pad
TTITLE5=Lucifer remix
TTITLE6=Let Me Watch(Apani B)
TTITLE7=Word On The Street
TTITLE8=Organ Donor Inst
TTITLE9=Comin From The Lower Level(TKweli)
TTITLE10=Raw(Inspectah Deck)
TTITLE11=Last Real Nigga Alive 9th remix
TTITLE12=Lick Upon
TTITLE13=Welcome To Assholville
TTITLE14=Everyone has a Summer(Kid Koala)
TTITLE15=Popsnot
TTITLE16=Shorty on the Lookout inst
TTITLE17=Fender Bender
TTITLE18=Warrior Song
TTITLE19=Zone Out
TTITLE20=Barhopper II
TTITLE21=Drums of Death
EXTD=
EXTT0=
EXTT1=
EXTT2=
EXTT3=
EXTT4=
EXTT5=
EXTT6=
EXTT7=
EXTT8=
EXTT9=
EXTT10=
EXTT11=
EXTT12=
EXTT13=
EXTT14=
EXTT15=
EXTT16=
EXTT17=
EXTT18=
EXTT19=
EXTT20=
EXTT21=
PLAYORDER=
